# xmcd
#
# Track frame offsets: 
#        150
#        12788
#        27698
#        38745
#        47425
#        59515
#        75833
#        87125
#        102160
#        115270
#        133373
#        143950
#        160745
#        177135
#        187023
#        201830
#
# Disc length: 2883 seconds
#
# Revision: 9
# Processed by: cddbd v1.5.2PL0 Copyright (c) Steve Scherf et al.
# Submitted via: ExactAudioCopy v1.3
#
DISCID=d20b4110
DTITLE=Various Artist - Contry and Western Festival Volume 3
DYEAR=1993
DGENRE=Country
TTITLE0=Freddie Fender - Before The Next Teardrop Falls
TTITLE1=Mell Tillis - Detroit City
TTITLE2=Moe Bandy - I'm Drunk Again
TTITLE3=Gene Watson - No One Will Ever Know
TTITLE4=Nitty Gritty Dirt Band - High Horse
TTITLE5=Kathy Mattea - Someone Is Falling
TTITLE6=Tom T. Hall - Ravishing Ruby
TTITLE7=Johnny Rodriguez - How Could I Love Her So Much
TTITLE8=Bobby Bare - 500 Miles Away From Home - Four Strong Winds - Sh
TTITLE8=ame On Me
TTITLE9=George Jones - Bartender Blues
TTITLE10=Mark Gray - Diamond In The Dust
TTITLE11=Tanya Tucker - The Night They Drove Old Dixie Down
TTITLE12=Denise Price - Love Affair
TTITLE13=Gail Davies - I'll Be There
TTITLE14=T. G. Sheppard - Do It Again
TTITLE15=Earl Thomas Conley - Love Don't Care
EXTD=YEAR: 2001
EXTT0=
EXTT1=
EXTT2=
EXTT3=
EXTT4=
EXTT5=
EXTT6=
EXTT7=
EXTT8=
EXTT9=
EXTT10=
EXTT11=
EXTT12=
EXTT13=
EXTT14=
EXTT15=
PLAYORDER=
